<?xml version="1.0" encoding="utf-8"?>
<!-- Generator: Adobe Illustrator 23.1.0, SVG Export Plug-In . SVG Version: 6.00 Build 0)  -->
<svg version="1.1" xmlns="http://www.w3.org/2000/svg" xmlns:xlink="http://www.w3.org/1999/xlink" x="0px" y="0px"
	 viewBox="0 0 1440 867" style="enable-background:new 0 0 1440 867;" xml:space="preserve">
<style type="text/css">
	.st0{fill:#FFFFFF;}
	.st1{fill:#0D0E0F;}
</style>
<g id="Слой_1">
	<g>
		<g>
			<path class="st0" d="M244.72,156.02c30.5-2.03,61.06,0.52,90.96,6.73c20.65,4.29,50.27,9.2,62.24,29.09
				c13.94,23.15-9.11,50.5-23.86,66.97c-17,18.99-37,35-58.35,48.83c-24.35,15.77-50.32,28.83-76.65,40.92
				c-7.03,3.23-0.92,13.49,6.06,10.36c50.96-22.88,101.99-45.6,152.87-68.68c49.1-22.27,98.01-45.31,144.58-72.55
				c23.18-13.56,45.47-28.97,61.58-50.82c1.89-2.57,0.46-6.77-2.15-8.21c-25.06-13.85-54.59-6.46-80.68,0.15
				c-28.85,7.3-57.25,16.42-84.97,27.25c-27.65,10.8-54.67,23.24-80.81,37.32c-25.17,13.56-50.26,28.23-72.87,45.79
				c-10.66,8.28-20.7,17.41-29.12,27.99c-8.35,10.49-16.51,22.93-19.01,36.33c-5.29,28.36,22.04,47.79,45.44,56.25
				c12.47,4.5,25.6,6.8,38.7,8.54c15.57,2.07,31.22,3.52,46.89,4.51c32.04,2.03,64.19,1.97,96.24,0.22
				c35.88-1.97,71.63-6.08,107.1-11.75c17.8-2.85,35.53-6.1,53.2-9.71c11.75-2.4,30-4.53,30.72-19.94c0.13-2.86-2-4.82-4.4-5.79
				c-18.62-7.5-38.64-10.9-58.69-10.09c-7.7,0.31-7.74,12.31,0,12c19.12-0.78,37.76,2.51,55.5,9.66c-1.47-1.93-2.94-3.86-4.4-5.79
				c-0.18,3.84-7.11,5.19-9.97,5.87c-7.08,1.68-14.26,2.99-21.4,4.4c-14.53,2.86-29.11,5.47-43.73,7.81
				c-29.34,4.69-58.87,8.22-88.52,10.35c-29.46,2.11-59.04,2.83-88.56,1.86c-27.97-0.92-56.57-2.53-84.08-7.96
				c-11.79-2.33-23.57-5.65-34.12-11.54c-9.86-5.51-20.82-14.14-23.91-25.55c-3.4-12.55,4.83-26.03,11.66-35.96
				c7.03-10.21,15.9-19.09,25.33-27.07c19.91-16.84,42.9-30.38,65.55-43.16c23.91-13.5,48.59-25.66,73.9-36.3
				c28.53-12,57.87-22.11,87.71-30.31c14.43-3.96,29.08-8.02,43.91-10.15c13.99-2.01,28.68-1.84,41.33,5.15
				c-0.72-2.74-1.43-5.47-2.15-8.21c-14.13,19.16-34.13,32.8-54.36,44.81c-22.69,13.46-46.07,25.77-69.67,37.53
				c-47.77,23.82-96.69,45.25-145.37,67.11c-28.44,12.77-56.88,25.53-85.32,38.3c2.02,3.45,4.04,6.91,6.06,10.36
				c50.02-22.97,100.25-50.1,137.44-91.62c17.07-19.07,39.15-46.79,29.21-74.13c-8.66-23.82-35.45-33.04-57.9-38.58
				c-35.61-8.79-72.48-12.99-109.14-10.56C237.05,144.53,237,156.53,244.72,156.02L244.72,156.02z"/>
		</g>
	</g>
	<g>
		<g>
			<path class="st0" d="M532.27,376.14c-27.87-0.87-50.02,20.02-68.41,38.44c-19.49,19.51-35.67,43.29-30.78,72.13
				c4.79,28.25,27.04,49.3,51.32,62.22c25.53,13.58,53.99,21.34,82.74,23.85c27.99,2.45,58.4,0.08,84.98-9.51
				c12.94-4.67,24.86-13.5,26.33-28.21c1.52-15.26-10.96-23.32-23.07-28.99c-26.31-12.32-54.47-19.83-83.4-22.47
				c-14.49-1.33-29.1-1.34-43.59,0.01c-12.02,1.11-27.58,1.52-37.68,8.92c-6.27,4.6-9.41,12.03-6.7,19.6
				c2.5,7,9.07,10.57,15.53,13.25c15.92,6.61,32.57,11.49,49.52,14.59c16.53,3.03,33.37,4.56,50.18,4.3
				c7.87-0.12,17.16,0.29,22.9-6.09c5.92-6.59,4.15-15.95-2.73-20.84c-3.96-2.82-10.02-0.7-12.31,3.23
				c-2.64,4.52-0.74,9.49,3.23,12.31c0.29,0.21,0.58,0.41,0.87,0.62c-1.08-1.08-2.15-2.15-3.23-3.23c-1.44-1.99,2.68-3.76,0.75-4.41
				c-0.11-0.04-3.03,0.25-2.09,0.19c-3.06,0.22-6.17,0.22-9.23,0.25c-6.16,0.04-12.32-0.14-18.46-0.56
				c-12.11-0.83-24.11-2.64-35.94-5.36c-12-2.76-23.8-6.42-35.24-10.96c-2.11-0.84-4.16-1.71-6.09-2.91c-0.1-0.06-0.2-0.12-0.3-0.18
				c-0.93-1.07-1.16-1.25-0.68-0.52c0.26-0.09,0.59,1.98,0.04,1.65c-0.07-0.04,2.33-1.47,2.56-1.57c2.11-0.93,4.49-1.3,6.75-1.73
				c44.85-8.48,93.23-2.27,134.68,16.72c6.65,3.05,19.8,7.13,14.51,16.61c-4.71,8.45-17.97,10.55-26.46,12.6
				c-22.58,5.46-46.02,6.75-69.11,4.35c-22.62-2.35-45.28-8.72-65.69-18.78c-19.02-9.37-37.99-23.21-45.08-44.11
				c-3.75-11.05-3.77-22.53,0.75-33.37c4.56-10.93,12.51-20.17,20.68-28.56c15.16-15.59,34.41-36.22,57.97-35.49
				C543.85,394.5,543.84,376.5,532.27,376.14L532.27,376.14z"/>
		</g>
	</g>
	<g>
		<g>
			<path class="st0" d="M516.79,505.31c12.65,0.31,25.23-3.48,35.38-11.09c3.88-2.91,5.88-7.78,3.23-12.31
				c-2.24-3.83-8.4-6.16-12.31-3.23c-7.83,5.87-16.49,8.87-26.3,8.64C505.2,487.03,505.21,505.03,516.79,505.31L516.79,505.31z"/>
		</g>
	</g>
	<g>
		<g>
			<path class="st0" d="M553.59,461.83c-37.88,6.02-75.76,12.05-113.64,18.07c-4.8,0.76-7.47,6.76-6.29,11.07
				c1.41,5.12,6.25,7.05,11.07,6.29c37.88-6.02,75.76-12.05,113.64-18.07c4.8-0.76,7.47-6.76,6.29-11.07
				C563.25,463,558.41,461.07,553.59,461.83L553.59,461.83z"/>
		</g>
	</g>
	<g>
		<g>
			<path class="st0" d="M562.61,496.27c3.49-0.72,6.98-1.44,10.47-2.16c10.28-2.12,7.4-17.28-2.39-17.68
				c-29.2-1.18-58.39-2.75-87.55-4.69c-11.56-0.77-11.52,17.23,0,18c29.16,1.94,58.35,3.51,87.55,4.69
				c-0.8-5.89-1.6-11.79-2.39-17.68c-3.49,0.72-6.98,1.44-10.47,2.16C546.48,481.25,551.28,498.61,562.61,496.27L562.61,496.27z"/>
		</g>
	</g>
	<g>
		<g>
			<path class="st0" d="M481.81,486.56c82.49-7.8,165.2-13.23,248.01-16.24c23.42-0.85,46.85-1.51,70.29-1.98
				c11.57-0.23,11.61-18.23,0-18c-82.84,1.67-165.63,5.71-248.24,12.17c-23.37,1.83-46.72,3.85-70.05,6.06c-4.84,0.46-9,3.81-9,9
				C472.81,482.07,476.95,487.02,481.81,486.56L481.81,486.56z"/>
		</g>
	</g>
	<g>
		<g>
			<path class="st0" d="M599.55,460.73c-31.11,0.28-62.09,2.84-92.85,7.42c-9.92,1.48-7.7,18.85,2.39,17.68
				c95.61-11.12,191.23-22.24,286.84-33.36c27.04-3.14,54.07-6.29,81.11-9.43c4.83-0.56,9-3.73,9-9c0-4.43-4.14-9.57-9-9
				c-95.61,11.12-191.23,22.24-286.84,33.36c-27.04,3.14-54.07,6.29-81.11,9.43c0.8,5.89,1.6,11.79,2.39,17.68
				c29.15-4.33,58.6-6.51,88.07-6.77C611.12,478.62,611.15,460.62,599.55,460.73L599.55,460.73z"/>
		</g>
	</g>
	<g>
		<g>
			<path class="st0" d="M911.31,438.37c-95.27,14.93-191.5,23.59-287.9,26.02c-27.58,0.7-55.18,0.87-82.77,0.55
				c-11.59-0.13-11.59,17.87,0,18c97.89,1.12,195.83-4.13,293.03-15.8c27.54-3.31,55.02-7.12,82.43-11.41
				c4.81-0.75,7.47-6.77,6.29-11.07C920.97,439.53,916.13,437.61,911.31,438.37L911.31,438.37z"/>
		</g>
	</g>
	<g>
		<g>
			<path class="st0" d="M765.06,484.59c8.47,0.12,15.88,2.77,22.79,7.63c0-5.18,0-10.36,0-15.54
				c-20.35,11.74-43.9,15.41-66.96,17.68c-27.08,2.67-54.27,4.31-81.45,5.46c-54.2,2.3-108.46,2.47-162.69,3.61
				c-31.08,0.66-62.16,1.65-93.2,3.51c-11.51,0.69-11.59,18.69,0,18c111.21-6.66,222.91-1.81,333.92-12.25
				c27.42-2.58,55.23-6.49,79.46-20.47c6.23-3.6,5.37-11.77,0-15.54c-9.37-6.59-20.45-9.93-31.87-10.08
				C753.47,466.43,753.46,484.43,765.06,484.59L765.06,484.59z"/>
		</g>
	</g>
	<g>
		<g>
			<path class="st0" d="M568.14,305.25c-64.6,21.08-129.21,42.17-193.81,63.25c-64.92,21.19-129.84,42.37-194.76,63.56
				c-35.23,11.5-70.39,24.35-106.81,31.57c-11.35,2.25-6.55,19.6,4.79,17.36c32.21-6.39,63.3-17.37,94.46-27.54
				c32.3-10.54,64.6-21.08,96.91-31.62c64.92-21.19,129.84-42.37,194.76-63.56c36.42-11.88,72.84-23.77,109.26-35.65
				C583.89,319.03,579.19,301.64,568.14,305.25L568.14,305.25z"/>
		</g>
	</g>
	<g>
		<g>
			<path class="st0" d="M503.25,309.77c4.57,1.15,9.13,2.3,13.7,3.45c0.8-5.89,1.6-11.79,2.39-17.68
				c-36.86,3.35-73.77,6.41-110.57,10.32c-18.42,1.96-36.81,4.2-55.13,6.99c-15.74,2.4-32.6,4.31-45.98,13.71
				c-7.46,5.24-4.55,16.01,4.54,16.77c31.82,2.67,63.75,2.21,95.63,1.1c31.91-1.11,63.81-2.45,95.72-3.68
				c-0.8-5.89-1.6-11.79-2.39-17.68c-21.88,8.73-43.76,17.46-65.64,26.19c-4.51,1.8-7.68,6.01-6.29,11.07
				c1.18,4.29,6.53,8.1,11.07,6.29c21.88-8.73,43.76-17.46,65.64-26.19c4.16-1.66,7.16-5.13,6.45-9.87
				c-0.64-4.25-4.29-7.98-8.84-7.8c-31.91,1.24-63.81,2.57-95.72,3.68c-31.88,1.11-63.81,1.57-95.63-1.1
				c1.51,5.59,3.03,11.18,4.54,16.77c12.5-8.78,28.93-9.99,43.63-12.19c17.38-2.61,34.84-4.65,52.31-6.47
				c35.51-3.69,71.1-6.68,106.66-9.91c9.56-0.87,12.87-15.04,2.39-17.68c-4.57-1.15-9.13-2.3-13.7-3.45
				C496.8,289.59,492,306.94,503.25,309.77L503.25,309.77z"/>
		</g>
	</g>
	<rect class="st1" width="1440" height="867"/>
</g>
<g id="Слой_2">
	
		<rect x="905.93" y="-249.31" transform="matrix(0.9291 -0.3697 0.3697 0.9291 -22.3981 542.1609)" class="st0" width="994.73" height="1157.65"/>
</g>
</svg>
